<svg width="92" height="93" viewBox="0 0 92 93" fill="none" xmlns="http://www.w3.org/2000/svg">
<g filter="url(#filter0_d_53_1816)">
<rect x="3" y="42.613" width="60.2638" height="61.966" rx="23" transform="rotate(-45 3 42.613)" fill="black"/>
</g>
<path d="M47.2147 38.2148H45.2147V42.2148H41.2147V44.2148H45.2147V48.2148H47.2147V44.2148H51.2147V42.2148H47.2147V38.2148ZM46.2147 33.2148C40.6947 33.2148 36.2147 37.6948 36.2147 43.2148C36.2147 48.7348 40.6947 53.2148 46.2147 53.2148C51.7347 53.2148 56.2147 48.7348 56.2147 43.2148C56.2147 37.6948 51.7347 33.2148 46.2147 33.2148ZM46.2147 51.2148C41.8047 51.2148 38.2147 47.6248 38.2147 43.2148C38.2147 38.8048 41.8047 35.2148 46.2147 35.2148C50.6247 35.2148 54.2147 38.8048 54.2147 43.2148C54.2147 47.6248 50.6247 51.2148 46.2147 51.2148Z" fill="white"/>
<defs>
<filter id="filter0_d_53_1816" x="0.526855" y="1.52693" width="91.3757" height="91.3757" filterUnits="userSpaceOnUse" color-interpolation-filters="sRGB">
<feFlood flood-opacity="0" result="BackgroundImageFix"/>
<feColorMatrix in="SourceAlpha" type="matrix" values="0 0 0 0 0 0 0 0 0 0 0 0 0 0 0 0 0 0 127 0" result="hardAlpha"/>
<feOffset dy="4"/>
<feGaussianBlur stdDeviation="6"/>
<feColorMatrix type="matrix" values="0 0 0 0 0 0 0 0 0 0 0 0 0 0 0 0 0 0 0.25 0"/>
<feBlend mode="normal" in2="BackgroundImageFix" result="effect1_dropShadow_53_1816"/>
<feBlend mode="normal" in="SourceGraphic" in2="effect1_dropShadow_53_1816" result="shape"/>
</filter>
</defs>
</svg>
